<?xml version="1.0" encoding="UTF-8"?>
<svg id="uuid-24212fb5-75ed-4af6-b41f-8946de2f6e64" xmlns="http://www.w3.org/2000/svg" width="32" height="32"
     viewBox="0 0 32 32" fill="#E4E8EC">
    <g id="uuid-bcf89deb-d4d3-4106-a04a-84defc4cd408">
        <path id="uuid-0b325d14-1f4f-48e4-abf1-6951d87de6e2"
              d="m31.332,8.272c-.367-1.386-1.446-2.471-2.83-2.847-2.496-.673-12.502-.673-12.502-.673,0,0-10.006,0-12.502.674-1.384.375-2.462,1.46-2.83,2.846C-.223,13.401-.223,18.645.668,23.774c.37,1.375,1.451,2.444,2.83,2.8,2.496.674,12.502.674,12.502.674,0,0,10.006,0,12.502-.674,1.377-.358,2.457-1.426,2.83-2.8.89-5.129.89-10.373,0-15.502Zm-18.601,12.509v-9.515l8.36,4.757-8.36,4.757Z"/>
    </g>
</svg>