<?xml version="1.0" encoding="UTF-8"?>
<svg id="uuid-0f4a5495-28b9-48b9-96c0-25386a3e3b64" xmlns="http://www.w3.org/2000/svg" width="32" height="32"
     viewBox="0 0 32 32" fill="#144734">
    <g id="uuid-73508726-2927-4c30-a55f-0c858c5128ce">
        <path id="uuid-5ce59848-c933-4506-83d1-0862e03792be"
              d="m7.192,31.982H.568V10.641h6.624v21.341ZM3.871,7.73C1.741,7.738.008,6.019,0,3.889-.008,1.759,1.712.026,3.841.018c2.127-.008,3.859,1.708,3.871,3.835.004,2.129-1.712,3.861-3.841,3.877Zm28.122,24.252h-6.614v-10.389c0-2.476-.05-5.647-3.446-5.647-3.446,0-3.974,2.69-3.974,5.472v10.563h-6.622V10.641h6.358v2.908h.093c1.296-2.217,3.706-3.541,6.272-3.446,6.707.003,7.941,4.42,7.941,10.158v11.72h-.007Z"/>
    </g>
</svg>