<svg xmlns="http://www.w3.org/2000/svg" width="152.684" height="30.536" viewBox="0 0 152.684 30.536">
    <g id="logo" transform="translate(-111.5 -33.565)">
        <g id="Group_1260" data-name="Group 1260" transform="translate(147.988 41.003)">
            <path id="Path_563" data-name="Path 563"
                  d="M357.709,288.082a3.908,3.908,0,0,1-2.633,4.061,2.952,2.952,0,0,1,.643.865l2.191,4.242c.221.382.161.684-.342.684h-1.147c-.864,0-1.145-.1-1.386-.6l-1.669-3.418a2.139,2.139,0,0,0-2.412-1.406h-1.487v4.744c0,.5-.161.684-.684.684h-1.146c-.5,0-.683-.181-.683-.684V284.343c0-.5.18-.684.683-.684h5.568C356,283.659,357.709,285.307,357.709,288.082Zm-4.724-2.071h-3.5v4.142h3.5a2.071,2.071,0,1,0,0-4.142Z"
                  transform="translate(-346.954 -283.357)" fill="#144734"/>
            <path id="Path_564" data-name="Path 564"
                  d="M378.865,283.1c3.679,0,5.729,2.01,5.729,5.247v4.383c0,3.236-2.051,5.247-5.729,5.247-3.7,0-5.749-2.011-5.749-5.247v-4.383C373.116,285.109,375.165,283.1,378.865,283.1Zm0,2.352c-2.051,0-3.216,1.006-3.216,2.875v4.423c0,1.869,1.166,2.875,3.216,2.875,2.071,0,3.216-1.006,3.216-2.875v-4.423c0-1.871-1.145-2.876-3.216-2.876Z"
                  transform="translate(-359.024 -283.099)" fill="#144734"/>
            <path id="Path_565" data-name="Path 565"
                  d="M414.952,284.343V297.25c0,.5-.182.684-.683.684h-1.046c-.5,0-.682-.181-.682-.684v-6.132a18.761,18.761,0,0,1,.5-4h-.14a20.166,20.166,0,0,1-1.669,3.679l-1.971,3.478a.745.745,0,0,1-.784.483h-.623a.716.716,0,0,1-.785-.483l-2.01-3.5a15.509,15.509,0,0,1-1.568-3.659h-.141a19.008,19.008,0,0,1,.443,4.02v6.112c0,.5-.161.684-.684.684h-.985c-.5,0-.685-.181-.685-.684v-12.9c0-.5.181-.684.685-.684h.9c.562,0,.723.1.965.522l4.182,7.478,4.181-7.458a.8.8,0,0,1,.9-.543h1.006C414.77,283.659,414.952,283.84,414.952,284.343Z"
                  transform="translate(-372.093 -283.357)" fill="#144734"/>
            <path id="Path_566" data-name="Path 566"
                  d="M447.834,284.343V297.25c0,.5-.182.684-.685.684H446.1c-.5,0-.684-.181-.684-.684v-6.132a18.7,18.7,0,0,1,.5-4h-.141a20.207,20.207,0,0,1-1.669,3.679l-1.97,3.478a.746.746,0,0,1-.784.483h-.623a.716.716,0,0,1-.785-.483l-2.009-3.5a15.4,15.4,0,0,1-1.568-3.659h-.141a18.97,18.97,0,0,1,.442,4.02v6.112c0,.5-.16.684-.682.684H435c-.5,0-.685-.181-.685-.684v-12.9c0-.5.181-.684.685-.684h.9c.563,0,.724.1.965.522l4.182,7.478,4.182-7.458a.806.806,0,0,1,.9-.543h1.005C447.652,283.659,447.834,283.84,447.834,284.343Z"
                  transform="translate(-387.263 -283.357)" fill="#144734"/>
            <path id="Path_567" data-name="Path 567"
                  d="M476.573,284.343v.985c0,.5-.161.683-.683.683h-6.171v3.518h5.206c.523,0,.683.181.683.683v.985c0,.5-.16.684-.683.684h-5.206v3.7h6.392c.5,0,.684.181.684.683v.986c0,.5-.182.684-.684.684h-8.222c-.5,0-.683-.181-.683-.684V284.343c0-.5.181-.684.683-.684h8C476.412,283.659,476.573,283.84,476.573,284.343Z"
                  transform="translate(-402.434 -283.357)" fill="#144734"/>
            <path id="Path_568" data-name="Path 568"
                  d="M494.688,284.343v11.238h5.769c.521,0,.682.181.682.683v.986c0,.5-.161.684-.682.684h-7.6c-.5,0-.682-.181-.682-.684V284.343c0-.5.181-.684.682-.684H494C494.527,283.659,494.688,283.84,494.688,284.343Z"
                  transform="translate(-413.954 -283.357)" fill="#144734"/>
            <path id="Path_569" data-name="Path 569"
                  d="M525.33,297.915h-1.046c-.844,0-1.086-.121-1.246-.6l-.926-2.593h-5.548l-.945,2.593c-.161.483-.4.6-1.247.6h-.925c-.5,0-.623-.221-.442-.664l5.006-13.067a.736.736,0,0,1,.844-.563h1.067c.462,0,.683.1.844.543l5.026,13.088C525.953,297.694,525.833,297.915,525.33,297.915Zm-5.468-9.509a9.457,9.457,0,0,1-.463-2.452h-.16a8.319,8.319,0,0,1-.422,2.432l-1.548,4.263h4.122Z"
                  transform="translate(-423.529 -283.34)" fill="#144734"/>
            <path id="Path_570" data-name="Path 570"
                  d="M552.845,290.537v2.694c0,2.734-2.051,4.745-5.729,4.745-3.7,0-5.749-2.011-5.749-5.247v-4.4c0-3.217,2.05-5.227,5.749-5.227,2.955,0,4.7,1.186,5.468,3.357.16.482.04.7-.423.884l-1.106.382c-.483.181-.684.081-.864-.422-.463-1.226-1.407-1.85-3.076-1.85-2.092,0-3.236,1.006-3.236,2.855v4.444c0,1.869,1.165,2.875,3.236,2.875,2.05,0,3.236-1.006,3.236-2.373v-1.045h-3.015c-.5,0-.682-.181-.682-.7v-.965c0-.522.181-.684.682-.684h4.825C552.684,289.853,552.845,290.015,552.845,290.537Z"
                  transform="translate(-436.649 -283.099)" fill="#144734"/>
        </g>
        <g id="favicon">
            <path id="Path_571" data-name="Path 571"
                  d="M294.44,299.828c-15.208,0-15.217-7.407-15.227-15.249,0-4.019-.009-7.814,1.949-10.657,2.17-3.15,6.4-4.621,13.3-4.63h.061c15.207,0,15.216,7.406,15.224,15.248,0,4.02.01,7.816-1.948,10.658-2.17,3.15-6.4,4.621-13.3,4.63Zm.085-28.495h-.059c-6.173.008-9.866,1.2-11.622,3.747-1.6,2.318-1.593,5.645-1.589,9.5.01,7.956.016,13.211,13.185,13.211h.058c6.173-.007,9.866-1.2,11.621-3.746,1.6-2.318,1.594-5.645,1.589-9.5C307.7,276.588,307.692,271.333,294.525,271.333Z"
                  transform="translate(-167.713 -235.727)" fill="#144734"/>
            <g id="Group_1261" data-name="Group 1261" transform="translate(120.173 38.333)">
                <path id="Path_572" data-name="Path 572"
                      d="M301.91,299.144a6.6,6.6,0,0,1-5.5-10.231,33.524,33.524,0,0,0,2.418-4.469l.179-.415a33.636,33.636,0,0,0,1.913-5.1,1.021,1.021,0,0,1,1.906-.22,1.123,1.123,0,0,1,.082.223,33.505,33.505,0,0,0,1.908,5.089l.184.427a33.4,33.4,0,0,0,2.447,4.512l.019.031a6.6,6.6,0,0,1-5.554,10.155Zm0-16.757c-.311.777-.661,1.589-1.033,2.451l-.18.419a35.483,35.483,0,0,1-2.578,4.765,4.554,4.554,0,1,0,7.61.046q-.015-.023-.029-.048a35.3,35.3,0,0,1-2.578-4.764l-.184-.427c-.369-.86-.718-1.669-1.027-2.442Z"
                      transform="translate(-295.314 -278.144)" fill="#144734"/>
            </g>
        </g>
    </g>
</svg>
